# xmcd
#
# Track frame offsets:
# 150
# 16740
# 44367
# 70800
# 93402
#
# Disc length: 1523 seconds
#
# Revision: 3
# Processed by: cddbd v1.5.1PL0 Copyright (c) Steve Scherf et al.
# Submitted via: inCDius 2.0b9
#
DISCID=3505f105
DTITLE=Cherry, Neneh - Money Love (Single)
DYEAR=1900
DGENRE=
TTITLE0=Money Love (LP Version)
TTITLE1=Money Love (Extended Mix)
TTITLE2=Money Love (Perfecto Mix)
TTITLE3=I've Got You Under My Skin
TTITLE4=Twisted
EXTD=
EXTT0=
EXTT1=
EXTT2=
EXTT3=
EXTT4=
PLAYORDER=
